<?xml version="1.0" encoding="iso-8859-1"?>
<!-- Generator: Adobe Illustrator 21.0.0, SVG Export Plug-In . SVG Version: 6.00 Build 0)  -->
<svg xmlns="http://www.w3.org/2000/svg" xmlns:xlink="http://www.w3.org/1999/xlink" version="1.1" id="Capa_1" x="0px" y="0px" viewBox="0 0 511.563 511.563" style="enable-background:new 0 0 511.563 511.563;" xml:space="preserve" width="512" height="512">
<g>
	<path d="M382.227,68.141c-1.236-3.954-5.444-6.158-9.395-4.921c-3.954,1.235-6.157,5.442-4.921,9.395   c0.116,0.373,10.823,35.551-5.632,58.382c-8.923-3.894-28.739-15.44-33.672-42.573c-0.74-4.075-4.641-6.783-8.721-6.037   c-4.075,0.741-6.778,4.646-6.037,8.721c8.058,44.321,47.187,55.55,48.848,56.006c0.657,0.18,1.324,0.268,1.986,0.268   c2.06,0,4.064-0.85,5.503-2.404c11.178-12.072,16.776-29.287,16.189-49.784C385.947,80.194,382.379,68.625,382.227,68.141z"/>
	<path d="M407.252,61.95c-5.931,0-10.755,4.824-10.755,10.754c0,5.931,4.824,10.755,10.755,10.755   c5.93,0,10.754-4.824,10.754-10.755C418.006,66.774,413.181,61.95,407.252,61.95z"/>
	<path d="M58.494,213.068c-7.534,15.023-10.944,31.69-9.892,48.595c0.06,0.963,0.13,1.935,0.21,2.912   c0.911,11.156-1.57,24.392-7.377,39.338c-1.5,3.861,0.414,8.207,4.275,9.707c0.893,0.347,1.811,0.511,2.714,0.511   c3.004,0,5.84-1.817,6.993-4.786c6.635-17.08,9.442-32.554,8.344-45.994c-0.072-0.878-0.135-1.751-0.188-2.617   c-1.002-16.096,2.795-31.935,10.98-45.805c1.935-3.277,1.107-7.484-1.925-9.785c-25.152-19.092-38.866-43.502-45.942-60.617   C5.2,92.557,31.016,30.891,36.41,19.057c0.143-0.314,0.24-0.53,0.29-0.648c1.234-2.856,4.563-4.182,7.421-2.943   c2.854,1.232,4.176,4.558,2.936,7.439c-0.062,0.145-6.188,14.675-9.791,35.354c-0.711,4.081,2.021,7.965,6.102,8.676   c4.076,0.711,7.965-2.021,8.676-6.102c3.275-18.801,8.763-31.928,8.803-32.024c4.495-10.443-0.34-22.606-10.778-27.114   C39.617-2.819,27.442,2.014,22.935,12.45l-0.175,0.386C18.894,21.318,11.732,38.878,7.2,61.177   c-6.824,33.576-4.932,63.547,5.625,89.08C23.119,175.157,38.837,196.746,58.494,213.068z"/>
	<path d="M508.003,95.793c0.24-2.478,0.369-4.97,0.369-7.459c0-3.027-1.82-5.759-4.615-6.923l-14.02-5.842   c-0.002-0.001-0.004-0.001-0.007-0.002l-45.092-18.788L426.77,33.135C411.089,12.387,386.2,0,360.191,0   c-26.491,0-50.229,15.786-60.475,40.217l-40.348,96.215L128.658,2.951c-2.898-2.962-7.647-3.01-10.605-0.111   c-2.96,2.898-3.01,7.647-0.111,10.606l135.132,137.996l-3.364,8.021H145.501c-17.66,0-34.792,4.724-49.846,13.702   c-18.063-11.395-30.929-26.104-38.273-43.777c-4.941-11.895-7.542-25.393-7.73-40.117c-0.052-4.109-3.399-7.404-7.497-7.404   c-0.032,0-0.066,0-0.098,0.001c-4.142,0.053-7.457,3.453-7.403,7.595c0.213,16.645,3.199,32.014,8.877,45.681   c9.142,22.001,25.436,39.94,48.43,53.319c2.471,1.438,5.545,1.346,7.926-0.238c13.532-9.002,29.305-13.761,45.614-13.761h107.861   l141.542,52.059v38.953c0,31.196-25.38,56.576-56.576,56.576c-4.142,0-7.5,3.358-7.5,7.5v139.437c0,4.142,3.358,7.5,7.5,7.5   c12.51,0,21.518,4.486,26.772,13.335c1.366,2.299,2.328,4.635,3.006,6.74H315.12c-13.103,0-23.762-10.659-23.762-23.762v-145.64   c0-4.143-3.357-7.5-7.5-7.5H160.635c-2.646,0-5.098,1.396-6.449,3.671c-26.099,43.956-90.605,64.814-91.25,65.018   c-3.12,0.985-5.242,3.88-5.242,7.152v73.484c0,4.142,3.358,7.5,7.5,7.5c12.511,0,21.519,4.486,26.773,13.335   c1.366,2.299,2.328,4.635,3.006,6.74H41.988c-13.103,0-23.762-10.659-23.762-23.762v-79.474c0-14.169,4.434-27.814,12.822-39.463   c3.711-5.153,7.305-10.69,10.682-16.458c2.094-3.574,0.892-8.169-2.682-10.262c-3.572-2.095-8.169-0.893-10.262,2.682   c-3.141,5.362-6.475,10.501-9.91,15.272c-10.238,14.217-15.65,30.893-15.65,48.228v79.474c0,21.373,17.389,38.762,38.762,38.762   h62.064c4.185,0,7.644-3.584,7.495-7.767c-0.014-0.398-1.79-37.451-38.854-41.878v-61.076c6.783-2.481,19.335-7.517,33.527-15.336   v73.359c0,21.374,17.389,38.763,38.762,38.763h62.065c4.187,0,7.644-3.584,7.495-7.768c-0.014-0.397-1.791-37.45-38.854-41.877   v-61.08c14.319-5.245,54.428-21.896,81.403-52.242h19.265v138.14c0,21.373,17.389,38.762,38.762,38.762h62.065   c4.185,0,7.644-3.584,7.495-7.767c-0.003-0.1-0.12-2.527-0.882-6.168h38.793c4.186,0,7.644-3.585,7.495-7.768   c-0.014-0.397-1.79-37.45-38.853-41.877v-50.95c0-4.143-3.357-7.5-7.5-7.5s-7.5,3.357-7.5,7.5v58.02c0,4.143,3.357,7.5,7.5,7.5   c20.038,0,27.28,11.771,29.896,20.075h-35.427c-5.306-9.315-14.93-18.626-32.374-20.71V336.661   c11.078-1.159,21.408-4.862,30.405-10.502v40.874c0,4.142,3.357,7.5,7.5,7.5s7.5-3.358,7.5-7.5v-53.402   c11.592-12.724,18.671-29.628,18.671-48.157V157.561h28.351c20.713,0,40.171-8.663,53.385-23.769   c9.438-10.79,14.905-23.464,16.339-37.748C507.986,95.961,507.995,95.877,508.003,95.793z M165.932,374.415   c-3.121,0.985-5.242,3.88-5.242,7.152v73.485c0,4.143,3.357,7.5,7.5,7.5c20.037,0,27.28,11.771,29.896,20.075h-53.103   c-13.102,0-23.762-10.66-23.762-23.763v-82.392c15.969-10.507,32.207-24.336,43.579-41.812h71.141   C206.198,361.421,166.384,374.272,165.932,374.415z M264.646,162.631l7.434-17.728l122.823,46.158v19.479L264.646,162.631z    M480.348,123.917c-10.365,11.849-25.708,18.645-42.095,18.645h-35.851c-4.143,0-7.5,3.357-7.5,7.5v24.975L277.885,131.06   l35.663-85.043C321.451,27.175,339.759,15,360.191,15c21.334,0,41.75,10.16,54.612,27.18l19.094,25.264   c0.802,1.061,1.871,1.889,3.099,2.4l43.261,18.026c1.725,6.633,5.488,12.602,10.732,17.016   C488.859,111.876,485.311,118.243,480.348,123.917z"/>
</g>















</svg>
