<?xml version="1.0" encoding="iso-8859-1"?>
<!-- Generator: Adobe Illustrator 19.0.0, SVG Export Plug-In . SVG Version: 6.00 Build 0)  -->
<svg version="1.1" id="Capa_1" xmlns="http://www.w3.org/2000/svg" xmlns:xlink="http://www.w3.org/1999/xlink" x="0px" y="0px"
	 viewBox="0 0 345.699 345.699" style="enable-background:new 0 0 345.699 345.699;" xml:space="preserve">
<g>
	<g>
		<path d="M308.541,78.602l-55.12-72.76l-0.32-0.44c-1.884-3.039-5.081-5.022-8.64-5.36c-1.179-0.101-2.366-0.02-3.52,0.24h-0.52
			l-90.28,11.16c-6.214,0.687-10.694,6.282-10.007,12.496c0.687,6.214,6.282,10.694,12.496,10.007
			c0.064-0.007,0.127-0.015,0.191-0.023l62.6-7.68l9.76-1.2l-4,9.04l-33.88,80l-1.92,4.56l-4.56-1.12
			c-61.938-16.371-125.42,20.568-141.791,82.506c-16.371,61.938,20.568,125.42,82.506,141.791s125.42-20.568,141.791-82.506
			c13.194-49.917-8.193-102.546-52.466-129.111l-4.24-2.52l1.92-4.56l33.88-80l4-9.04l5.92,8l38.12,50.24
			c4.017,4.82,11.18,5.471,16,1.454C310.972,90.016,311.874,83.437,308.541,78.602z M217.541,164.282l-0.12-0.04
			c36.389,36.779,36.073,96.093-0.706,132.482c-36.779,36.389-96.093,36.073-132.482-0.706s-36.073-96.093,0.706-132.482
			c26.981-26.695,67.402-34.472,102.362-19.694C198.627,148.601,208.903,155.547,217.541,164.282z"/>
	</g>
</g>
<g>
</g>
<g>
</g>
<g>
</g>
<g>
</g>
<g>
</g>
<g>
</g>
<g>
</g>
<g>
</g>
<g>
</g>
<g>
</g>
<g>
</g>
<g>
</g>
<g>
</g>
<g>
</g>
<g>
</g>
</svg>
