<?xml version="1.0" encoding="UTF-8"?>
<svg xmlns="http://www.w3.org/2000/svg" xmlns:xlink="http://www.w3.org/1999/xlink" width="70pt" height="70pt" viewBox="0 0 70 70" version="1.1">
<g id="surface1">
<path style=" stroke:none;fill-rule:nonzero;fill:rgb(0%,0%,0%);fill-opacity:1;" d="M 46.808594 37.097656 C 43.660156 32.183594 38.296875 29.25 32.460938 29.25 C 26.625 29.25 21.257812 32.183594 18.109375 37.097656 L 10.519531 48.9375 C 9.261719 50.902344 8.679688 53.171875 8.839844 55.5 C 9 57.828125 9.882812 60 11.402344 61.773438 C 12.917969 63.546875 14.921875 64.757812 17.199219 65.28125 C 19.472656 65.800781 21.804688 65.578125 23.945312 64.636719 L 24.082031 64.574219 C 29.460938 62.257812 35.609375 62.277344 40.972656 64.636719 C 42.359375 65.246094 43.824219 65.554688 45.304688 65.554688 C 46.109375 65.554688 46.917969 65.460938 47.71875 65.28125 C 49.996094 64.761719 52 63.546875 53.515625 61.773438 C 55.035156 60 55.921875 57.832031 56.082031 55.503906 C 56.242188 53.171875 55.660156 50.902344 54.398438 48.9375 Z M 50.398438 59.105469 C 48.46875 61.363281 45.34375 62.078125 42.625 60.882812 C 39.394531 59.460938 35.925781 58.75 32.457031 58.75 C 28.992188 58.75 25.523438 59.460938 22.296875 60.878906 L 22.203125 60.921875 C 19.507812 62.0625 16.429688 61.339844 14.519531 59.105469 C 12.589844 56.847656 12.371094 53.652344 13.972656 51.152344 L 21.5625 39.3125 C 23.957031 35.582031 28.027344 33.355469 32.460938 33.355469 C 36.890625 33.355469 40.964844 35.582031 43.355469 39.3125 L 50.945312 51.152344 C 52.546875 53.652344 52.328125 56.851562 50.398438 59.105469 Z M 50.398438 59.105469 "/>
<path style=" stroke:none;fill-rule:nonzero;fill:rgb(0%,0%,0%);fill-opacity:1;" d="M 12.5625 37.082031 C 14.820312 36.214844 16.535156 34.398438 17.394531 31.960938 C 18.210938 29.640625 18.140625 27.023438 17.207031 24.585938 C 16.265625 22.152344 14.5625 20.167969 12.402344 18.992188 C 10.132812 17.757812 7.640625 17.558594 5.386719 18.425781 C 0.851562 20.171875 -1.230469 25.777344 0.746094 30.921875 C 2.328125 35.019531 6.011719 37.605469 9.738281 37.605469 C 10.6875 37.605469 11.640625 37.4375 12.5625 37.082031 Z M 4.578125 29.449219 C 3.410156 26.417969 4.433594 23.1875 6.859375 22.257812 C 7.296875 22.089844 7.761719 22.003906 8.234375 22.003906 C 8.964844 22.003906 9.71875 22.203125 10.441406 22.597656 C 11.746094 23.308594 12.789062 24.539062 13.375 26.0625 C 13.964844 27.585938 14.015625 29.199219 13.523438 30.597656 C 13.070312 31.882812 12.207031 32.824219 11.09375 33.253906 L 11.089844 33.253906 C 8.667969 34.1875 5.746094 32.480469 4.578125 29.449219 Z M 4.578125 29.449219 "/>
<path style=" stroke:none;fill-rule:nonzero;fill:rgb(0%,0%,0%);fill-opacity:1;" d="M 27.289062 27.808594 C 32.960938 27.808594 37.574219 22.550781 37.574219 16.09375 C 37.574219 9.632812 32.960938 4.375 27.289062 4.375 C 21.621094 4.375 17.007812 9.632812 17.007812 16.09375 C 17.007812 22.550781 21.621094 27.808594 27.289062 27.808594 Z M 27.289062 8.476562 C 30.699219 8.476562 33.46875 11.894531 33.46875 16.09375 C 33.46875 20.289062 30.699219 23.703125 27.289062 23.703125 C 23.882812 23.703125 21.113281 20.289062 21.113281 16.09375 C 21.113281 11.894531 23.882812 8.476562 27.289062 8.476562 Z M 27.289062 8.476562 "/>
<path style=" stroke:none;fill-rule:nonzero;fill:rgb(0%,0%,0%);fill-opacity:1;" d="M 45.046875 30.683594 C 45.921875 30.972656 46.8125 31.113281 47.695312 31.113281 C 51.832031 31.113281 55.859375 28.101562 57.398438 23.476562 C 58.285156 20.816406 58.226562 18 57.234375 15.550781 C 56.199219 12.988281 54.273438 11.128906 51.820312 10.3125 C 49.367188 9.496094 46.714844 9.835938 44.347656 11.269531 C 42.089844 12.636719 40.355469 14.859375 39.472656 17.519531 C 37.605469 23.136719 40.109375 29.042969 45.046875 30.683594 Z M 43.367188 18.8125 C 43.945312 17.074219 45.046875 15.644531 46.472656 14.78125 C 47.792969 13.980469 49.234375 13.777344 50.527344 14.207031 C 51.820312 14.636719 52.851562 15.660156 53.429688 17.089844 C 54.054688 18.636719 54.082031 20.445312 53.503906 22.183594 C 52.351562 25.652344 49.136719 27.71875 46.34375 26.789062 C 43.550781 25.863281 42.214844 22.285156 43.367188 18.8125 Z M 43.367188 18.8125 "/>
<path style=" stroke:none;fill-rule:nonzero;fill:rgb(0%,0%,0%);fill-opacity:1;" d="M 66.703125 29.316406 L 66.699219 29.316406 C 62.789062 26.429688 56.941406 27.679688 53.664062 32.109375 C 50.390625 36.539062 50.902344 42.496094 54.804688 45.386719 C 56.230469 46.441406 57.910156 46.945312 59.632812 46.945312 C 62.632812 46.945312 65.753906 45.414062 67.84375 42.597656 C 71.117188 38.164062 70.605469 32.210938 66.703125 29.316406 Z M 64.542969 40.15625 C 62.609375 42.769531 59.335938 43.632812 57.246094 42.085938 C 55.160156 40.542969 55.03125 37.160156 56.964844 34.546875 C 58.246094 32.816406 60.121094 31.851562 61.847656 31.851562 C 62.722656 31.851562 63.558594 32.097656 64.261719 32.617188 C 66.347656 34.164062 66.472656 37.542969 64.542969 40.15625 Z M 64.542969 40.15625 "/>
</g>
</svg>
