<svg height="512pt" viewBox="0 -36 512.00178 512" width="512pt" xmlns="http://www.w3.org/2000/svg"><path d="m58.4375 289.054688c.085938 7.042968.433594 13.972656 1.070312 20.679687.398438 4.148437 4.230469 7.257813 8.371094 6.785156 4.035156-.464843 7.046875-4.171875 6.660156-8.21875-.710937-7.460937-1.042968-15.214843-1.027343-23.109375 18.199219-5.402344 39.085937-14.042968 62.011719-25.804687 3.710937-1.902344 5.175781-6.453125 3.273437-10.164063-1.902344-3.707031-6.453125-5.175781-10.164063-3.273437-30.511718 15.652343-56.703124 25.464843-77.84375 29.171875-21.796874 3.820312-30.445312-.25-33.152343-2.175782-2.554688-1.820312-2.667969-3.585937-2.480469-4.917968.65625-4.660156 6.882812-11.613282 19-15.871094 68.269531-24 97.78125-61.253906 99.007812-62.828125 2.550782-3.285156 1.957032-8.011719-1.324218-10.574219s-8.019532-1.976562-10.589844 1.296875c-.070312.089844-7.078125 8.9375-21.875 20.4375-4.441406 3.453125-9.910156 7.382813-16.40625 11.515625 2.003906-8.121094 4.285156-16.15625 6.84375-24.019531 1.367188-4.199219-1.292969-8.796875-5.605469-9.71875-38.683593-8.246094-63.105469-24.828125-65.320312-44.351563-1.527344-13.433593 2.261719-25.953124 11.261719-37.214843 13.960937-17.472657 40.835937-31.507813 70.929687-37.613281-.847656 1.625-1.34375 2.621093-1.414063 2.761718-1.847656 3.734375-.316406 8.261719 3.417969 10.113282 3.734375 1.847656 8.265625.320312 10.117188-3.417969 13.492187-27.246094 29.492187-46.160157 35.96875-46.730469.808593-.074219 4.167969.90625 8.914062 6.160156 4.597657 5.089844 8.589844 12.113282 10.960938 19.265625 3.023437 9.125 5.882812 25.796875-8.914063 34.902344-3.550781 2.183594-4.65625 6.835937-2.472656 10.386719 2.15625 3.5 6.882812 4.628906 10.386719 2.472656 7.074219-4.355469 12.191406-10.292969 15.230469-17.351562 22.847656 25.679687 18.316406 62.230468 2.839843 87.6875-2.082031 3.421874-1.128906 7.871093 2.171875 10.144531 42.988282 29.582031 72.21875 68.179687 86.875 114.714843 1.285156 4.085938 5.855469 6.296876 9.867188 4.796876 3.703125-1.386719 5.71875-5.566407 4.535156-9.332032-15.035156-47.746094-44.3125-87.625-87.058594-118.621094 10.257813-19.394531 13.953125-39.816406 10.695313-59.453124-.1875-1.144532-.410157-2.28125-.644531-3.410157 21.144531-36.765625 48.53125-72.027343 102.679687-84.464843 4.0625-.933594 6.601563-4.984376 5.667969-9.050782-.933594-4.0625-4.988282-6.601562-9.050782-5.667968-53.984374 12.402343-84.222656 46.097656-105.664062 80.425781-4.726562-9.800781-11.375-18.542969-19.65625-25.664063-.136719-5.476562-1.171875-11.269531-3.15625-17.265625-6.148438-18.554687-21.113281-36.976562-35.535156-35.714843-7.070313.621093-14.425782 5.476562-22.621094 15.035156-6.578125-8.648438-15.449219-15.839844-24.667969-15.035156-4.605469.40625-18.484375 1.632812-45.835937 52.324218-16.5625 8.492188-28.824219 18.738282-36.363282 28.175782-11.59375 14.511718-16.460937 30.777343-14.464843 48.34375 2.847656 25.082031 27.886719 45.085937 69.121093 55.539062-3.058593 10.203125-5.660156 20.632812-7.816406 31.125-10.335937 5.417969-22.335937 10.808594-36.042968 15.628906-16.21875 5.703125-27.308594 16.433594-28.941407 28.003906-1.074219 7.601563 2.089844 14.648438 8.675781 19.335938 6.234376 4.4375 14.914063 6.621094 25.691407 6.621094 7.078125-.003906 15.070312-.953125 23.863281-2.816406zm43.445312-267.242188c2.164063-.195312 8.246094 3.910156 13.800782 12.660156-.375.554688-.75 1.113282-1.128906 1.683594-1.347657 2.035156-2.636719 4.058594-3.855469 6.027344-12.011719 1.550781-23.046875 4.117187-33.046875 7.390625 12.183594-19.5625 20.847656-27.464844 24.230468-27.761719zm0 0"/><path d="m480.875 46.847656c-28.472656-32.351562-73.425781-48.5-129.980469-46.710937-2.6875.082031-5.378906.214843-7.996093.390625-4.160157.277344-7.308594 3.871094-7.03125 8.03125.277343 4.160156 3.875 7.3125 8.03125 7.03125 2.445312-.160156 4.957031-.285156 7.472656-.363282 51.90625-1.644531 92.773437 12.738282 118.167968 41.59375 22.714844 25.8125 31.726563 61.851563 25.371094 101.480469-4.324218 26.957031-22.726562 46.023438-49.230468 51-24.3125 4.566407-56.265626-3.511719-72.996094-31.8125-7.394532-14.921875-8.367188-27.753906-2.882813-38.132812 4.105469-7.773438 10.554688-11.523438 10.769531-11.644531 3.636719-2 4.980469-6.554688 3.003907-10.207032-1.984375-3.667968-6.566407-5.035156-10.230469-3.050781-.378906.203125-36.355469 20.351563-15.816406 66.28125-2.109375 3.914063-5.242188 10.566406-7.230469 18.628906-4.351563 17.65625-1.222656 33.613281 9.054687 46.148438 1.597657 1.949219 3.242188 3.917969 4.910157 5.917969 19.957031 23.894531 42.574219 50.976562 29.441406 98.160156-6.519531 23.417968-21.546875 41.554687-43.457031 52.449218-20.324219 10.105469-45.980469 13.527344-74.882813 10.144532.464844-.46875.925781-.941406 1.378907-1.421875 16.757812-17.789063 25.207031-40.699219 23.792968-64.515625-.59375-9.945313-1.742187-19.84375-3.410156-29.417969-.714844-4.105469-4.621094-6.851563-8.734375-6.140625-4.105469.714844-6.855469 4.625-6.140625 8.734375 1.570312 9.015625 2.652344 18.34375 3.210938 27.722656 1.167968 19.617188-5.832032 38.535157-19.710938 53.261719-15.085938 16.011719-36.832031 25.195312-59.660156 25.195312h-154.257813c-6.695312 0-11.839843-6.667968-9.777343-13.128906 2.964843-9.28125 8.84375-16.128906 17.480468-20.359375 26.378906-12.921875 56.734375-9.96875 57.03125-9.9375 5.886719.621094 10.242188-5.78125 7.472656-11.03125-.1875-.351562-18.476562-35.667969-4.859374-65.628906 8.472656-18.648437 27.824218-31.664063 57.511718-38.683594 4.054688-.960937 6.566406-5.027343 5.609375-9.085937-.960937-4.058594-5.03125-6.570313-9.085937-5.609375-34.46875 8.152343-57.273438 24.007812-67.78125 47.132812-11.511719 25.320313-5.027344 52.535157.371094 67.484375-4.4375.074219-9.851563.382813-15.824219 1.140625-4.386719-9.578125-7.941407-19.820312-10.574219-30.53125-.992188-4.050781-5.082031-6.527343-9.132812-5.53125-4.050782.996094-6.523438 5.085938-5.53125 9.132813 2.546874 10.355468 5.886718 20.324218 9.964843 29.753906-7.128906 1.765625-14.558593 4.28125-21.8125 7.832031-12.300781 6.023438-21.019531 16.164063-25.222656 29.328125-2.453125 7.691406-1.117187 15.855469 3.664063 22.40625 4.835937 6.617188 12.304687 10.414063 20.496093 10.414063h154.261719c19.222656 0 37.824219-5.546875 53.417969-15.625 12.730469 2.316406 25.023437 3.484375 36.722656 3.484375 22.785156 0 43.363281-4.367188 60.738281-13.003906 25.847656-12.851563 43.578125-34.261719 51.277344-61.917969 15.257812-54.828125-11.164062-86.46875-32.398438-111.890625-1.636718-1.964844-3.253906-3.898438-4.824218-5.8125-11.0625-13.492188-7.878906-29.769532-3.867188-40.183594 19.179688 22.960938 50.328125 34.207031 81.308594 28.386719 33.039062-6.207031 55.976562-29.925781 61.351562-63.449219 7.078126-44.15625-3.199218-84.585938-28.945312-113.839844zm0 0"/><path d="m89.226562 99.917969c-8.589843 0-15.324218 8.359375-15.324218 19.03125s6.734375 19.03125 15.324218 19.03125c8.59375 0 15.324219-8.359375 15.324219-19.03125s-6.730469-19.03125-15.324219-19.03125zm0 0"/></svg>